<svg width="109" height="32" viewBox="0 0 109 32" fill="none" xmlns="http://www.w3.org/2000/svg">
<path d="M39.536 10.105C41.2927 10.105 42.6413 10.4167 43.582 11.04C44.5227 11.652 44.993 12.6607 44.993 14.066C44.993 15.4827 44.517 16.5083 43.565 17.143C42.613 17.7663 41.253 18.078 39.485 18.078H38.652V22.022H36V10.411C36.578 10.2977 37.19 10.2183 37.836 10.173C38.482 10.1277 39.0487 10.105 39.536 10.105ZM39.706 12.366C39.5133 12.366 39.3207 12.3717 39.128 12.383C38.9467 12.3943 38.788 12.4057 38.652 12.417V15.817H39.485C40.403 15.817 41.0943 15.6923 41.559 15.443C42.0237 15.1937 42.256 14.729 42.256 14.049C42.256 13.7203 42.1937 13.4483 42.069 13.233C41.9557 13.0177 41.7857 12.8477 41.559 12.723C41.3437 12.587 41.0773 12.4963 40.76 12.451C40.4427 12.3943 40.0913 12.366 39.706 12.366Z" fill="#DFE0E0"/>
<path d="M52.1594 15.324C51.9328 15.2673 51.6664 15.2107 51.3604 15.154C51.0544 15.086 50.7258 15.052 50.3744 15.052C50.2158 15.052 50.0231 15.069 49.7964 15.103C49.5811 15.1257 49.4168 15.154 49.3034 15.188V22.022H46.7704V13.556C47.2238 13.3973 47.7564 13.25 48.3684 13.114C48.9918 12.9667 49.6831 12.893 50.4424 12.893C50.5784 12.893 50.7428 12.9043 50.9354 12.927C51.1281 12.9383 51.3208 12.961 51.5134 12.995C51.7061 13.0177 51.8988 13.0517 52.0914 13.097C52.2841 13.131 52.4484 13.1763 52.5844 13.233L52.1594 15.324Z" fill="#DFE0E0"/>
<path d="M53.3513 17.619C53.3513 16.8257 53.4703 16.1343 53.7083 15.545C53.9576 14.9443 54.2806 14.4457 54.6773 14.049C55.074 13.6523 55.5273 13.352 56.0373 13.148C56.5586 12.944 57.0913 12.842 57.6353 12.842C58.9046 12.842 59.9076 13.233 60.6443 14.015C61.381 14.7857 61.7493 15.9247 61.7493 17.432C61.7493 17.5793 61.7436 17.7437 61.7323 17.925C61.721 18.095 61.7096 18.248 61.6983 18.384H55.9523C56.009 18.9053 56.2526 19.319 56.6833 19.625C57.114 19.931 57.692 20.084 58.4173 20.084C58.882 20.084 59.3353 20.0443 59.7773 19.965C60.2306 19.8743 60.599 19.7667 60.8823 19.642L61.2223 21.699C61.0863 21.767 60.905 21.835 60.6783 21.903C60.4516 21.971 60.1966 22.0277 59.9133 22.073C59.6413 22.1297 59.3466 22.175 59.0293 22.209C58.712 22.243 58.3946 22.26 58.0773 22.26C57.2726 22.26 56.57 22.141 55.9693 21.903C55.38 21.665 54.887 21.342 54.4903 20.934C54.105 20.5147 53.816 20.0217 53.6233 19.455C53.442 18.8883 53.3513 18.2763 53.3513 17.619ZM59.3013 16.65C59.29 16.4347 59.2503 16.225 59.1823 16.021C59.1256 15.817 59.0293 15.6357 58.8933 15.477C58.7686 15.3183 58.6043 15.188 58.4003 15.086C58.2076 14.984 57.964 14.933 57.6693 14.933C57.386 14.933 57.1423 14.984 56.9383 15.086C56.7343 15.1767 56.5643 15.3013 56.4283 15.46C56.2923 15.6187 56.1846 15.8057 56.1053 16.021C56.0373 16.225 55.9863 16.4347 55.9523 16.65H59.3013Z" fill="#DFE0E0"/>
<path d="M68.617 17.279C68.617 16.463 68.5094 15.885 68.294 15.545C68.09 15.205 67.733 15.035 67.223 15.035C67.0644 15.035 66.9 15.0463 66.73 15.069C66.56 15.0803 66.3957 15.0973 66.237 15.12V22.022H63.704V13.386C63.9194 13.3293 64.1687 13.2727 64.452 13.216C64.7467 13.148 65.0527 13.0913 65.37 13.046C65.6987 12.9893 66.033 12.9497 66.373 12.927C66.713 12.893 67.0474 12.876 67.376 12.876C68.022 12.876 68.5434 12.961 68.94 13.131C69.348 13.2897 69.6824 13.4823 69.943 13.709C70.3057 13.4483 70.7194 13.2443 71.184 13.097C71.66 12.9497 72.0964 12.876 72.493 12.876C73.207 12.876 73.7907 12.978 74.244 13.182C74.7087 13.3747 75.077 13.6523 75.349 14.015C75.621 14.3777 75.808 14.8083 75.91 15.307C76.012 15.8057 76.063 16.361 76.063 16.973V22.022H73.53V17.279C73.53 16.463 73.4224 15.885 73.207 15.545C73.003 15.205 72.646 15.035 72.136 15.035C72 15.035 71.8074 15.069 71.558 15.137C71.32 15.205 71.1217 15.29 70.963 15.392C71.0424 15.6527 71.0934 15.9303 71.116 16.225C71.1387 16.5083 71.15 16.8143 71.15 17.143V22.022H68.617V17.279Z" fill="#DFE0E0"/>
<path d="M80.8962 22.022H78.3632V13.08H80.8962V22.022ZM81.1342 10.496C81.1342 10.9607 80.9812 11.329 80.6752 11.601C80.3805 11.8617 80.0292 11.992 79.6212 11.992C79.2132 11.992 78.8562 11.8617 78.5502 11.601C78.2555 11.329 78.1082 10.9607 78.1082 10.496C78.1082 10.0313 78.2555 9.66867 78.5502 9.408C78.8562 9.136 79.2132 9 79.6212 9C80.0292 9 80.3805 9.136 80.6752 9.408C80.9812 9.66867 81.1342 10.0313 81.1342 10.496Z" fill="#DFE0E0"/>
<path d="M90.9103 21.716C90.4796 21.8407 89.9243 21.954 89.2443 22.056C88.5643 22.1693 87.8503 22.226 87.1023 22.226C86.3429 22.226 85.7083 22.124 85.1983 21.92C84.6996 21.716 84.3029 21.4327 84.0083 21.07C83.7136 20.696 83.5039 20.254 83.3793 19.744C83.2546 19.234 83.1923 18.673 83.1923 18.061V13.08H85.7253V17.755C85.7253 18.571 85.8329 19.1603 86.0483 19.523C86.2636 19.8857 86.6659 20.067 87.2553 20.067C87.4366 20.067 87.6293 20.0613 87.8333 20.05C88.0373 20.0273 88.2186 20.0047 88.3773 19.982V13.08H90.9103V21.716Z" fill="#DFE0E0"/>
<path d="M98.201 17.279C98.201 16.463 98.0933 15.885 97.878 15.545C97.674 15.205 97.317 15.035 96.807 15.035C96.6483 15.035 96.484 15.0463 96.314 15.069C96.144 15.0803 95.9797 15.0973 95.821 15.12V22.022H93.288V13.386C93.5033 13.3293 93.7527 13.2727 94.036 13.216C94.3307 13.148 94.6367 13.0913 94.954 13.046C95.2827 12.9893 95.617 12.9497 95.957 12.927C96.297 12.893 96.6313 12.876 96.96 12.876C97.606 12.876 98.1273 12.961 98.524 13.131C98.932 13.2897 99.2663 13.4823 99.527 13.709C99.8897 13.4483 100.303 13.2443 100.768 13.097C101.244 12.9497 101.68 12.876 102.077 12.876C102.791 12.876 103.375 12.978 103.828 13.182C104.293 13.3747 104.661 13.6523 104.933 14.015C105.205 14.3777 105.392 14.8083 105.494 15.307C105.596 15.8057 105.647 16.361 105.647 16.973V22.022H103.114V17.279C103.114 16.463 103.006 15.885 102.791 15.545C102.587 15.205 102.23 15.035 101.72 15.035C101.584 15.035 101.391 15.069 101.142 15.137C100.904 15.205 100.706 15.29 100.547 15.392C100.626 15.6527 100.677 15.9303 100.7 16.225C100.723 16.5083 100.734 16.8143 100.734 17.143V22.022H98.201V17.279Z" fill="#DFE0E0"/>
<path fill-rule="evenodd" clip-rule="evenodd" d="M15.4948 25.8368C12.1047 25.6295 8.8583 23.5559 7.28006 20.5255C5.81542 17.7133 5.83846 14.1805 7.33542 11.3898C9.01126 8.26594 12.3354 6.36098 16.0148 6.19714C16.0148 6.19714 16.929 6.13858 17.5393 5.79202C19.3498 4.76322 19.6202 1.72642 17.6743 0.486418C17.1505 0.152658 16.5252 -0.00190234 15.9018 1.76635e-05C9.75494 0.0588977 3.81094 3.90018 1.31238 9.59907C-0.787466 14.3892 -0.350666 20.1981 2.50214 24.64C4.77254 28.1748 8.47526 30.7597 12.5828 31.6535C18.2039 32.8768 24.4302 30.7978 28.1876 26.4141C31.913 22.0672 33.0513 15.6416 30.9649 10.2474C29.7687 7.1549 27.6494 4.33474 24.8135 2.6381C24.6654 2.54946 24.5102 2.4765 24.3502 2.41826C27.203 4.86146 29.0116 8.48675 29.0116 12.5303C29.0116 19.88 23.0369 25.8468 15.6772 25.8468C15.617 25.8468 15.6109 25.8439 15.4948 25.8368V25.8368Z" fill="#1292EE"/>
</svg>
